<?xml version="1.0" encoding="UTF-8" standalone="no"?>
<!DOCTYPE svg PUBLIC "-//W3C//DTD SVG 1.1//EN" "http://www.w3.org/Graphics/SVG/1.1/DTD/svg11.dtd">
<svg version="1.1" xmlns="http://www.w3.org/2000/svg" xmlns:xlink="http://www.w3.org/1999/xlink" preserveAspectRatio="xMidYMid meet" viewBox="0 0 96 96" width="96" height="96"><defs><path d="M10.08 70.75C4.53 70.75 0 66.21 0 60.66C0 55.11 4.53 50.58 10.08 50.58C10.76 50.58 14.12 50.58 20.17 50.58L20.17 60.66C17.15 67.39 13.79 70.75 10.08 70.75Z" id="a2qEOUENd6"></path><path d="M35.34 50.58C40.89 50.58 45.42 55.11 45.42 60.66C45.42 63.19 45.42 83.39 45.42 85.92C45.42 91.47 40.89 96 35.34 96C29.79 96 25.25 91.47 25.25 85.92C25.25 84.23 25.25 75.81 25.25 60.66C28.27 53.94 31.64 50.58 35.34 50.58Z" id="b1mPvuROpq"></path><path d="M25.25 10.08C25.25 4.53 29.79 0 35.34 0C40.89 0 45.42 4.53 45.42 10.08C45.42 10.76 45.42 14.12 45.42 20.17L35.34 20.17C28.61 17.15 25.25 13.79 25.25 10.08Z" id="j17rxZDD4K"></path><path d="M45.42 35.34C45.42 40.89 40.89 45.42 35.34 45.42C32.81 45.42 12.61 45.42 10.08 45.42C4.53 45.42 0 40.89 0 35.34C0 29.79 4.53 25.25 10.08 25.25C11.77 25.25 20.19 25.25 35.34 25.25C42.06 28.27 45.42 31.64 45.42 35.34Z" id="cmC889h1O"></path><path d="M85.92 25.25C91.47 25.25 96 29.79 96 35.34C96 40.89 91.47 45.42 85.92 45.42C85.24 45.42 81.88 45.42 75.83 45.42L75.83 35.34C78.85 28.61 82.21 25.25 85.92 25.25Z" id="aaPpznRbc"></path><path d="M60.66 45.42C55.11 45.42 50.58 40.89 50.58 35.34C50.58 32.81 50.58 12.61 50.58 10.08C50.58 4.53 55.11 0 60.66 0C66.21 0 70.75 4.53 70.75 10.08C70.75 11.77 70.75 20.19 70.75 35.34C67.73 42.06 64.36 45.42 60.66 45.42Z" id="bKKfrRCH"></path><path d="M70.75 85.92C70.75 91.47 66.21 96 60.66 96C55.11 96 50.58 91.47 50.58 85.92C50.58 85.24 50.58 81.88 50.58 75.83L60.66 75.83C67.39 78.85 70.75 82.21 70.75 85.92Z" id="c9tXvNPANc"></path><path d="M50.58 60.66C50.58 55.11 55.11 50.58 60.66 50.58C63.19 50.58 83.39 50.58 85.92 50.58C91.47 50.58 96 55.11 96 60.66C96 66.21 91.47 70.75 85.92 70.75C84.23 70.75 75.81 70.75 60.66 70.75C53.94 67.73 50.58 64.36 50.58 60.66Z" id="a4baalmexk"></path></defs><g><g><g><use xlink:href="#a2qEOUENd6" opacity="1" fill="#e01e5a" fill-opacity="1"></use><g><use xlink:href="#a2qEOUENd6" opacity="1" fill-opacity="0" stroke="#000000" stroke-width="1" stroke-opacity="0"></use></g></g><g><use xlink:href="#b1mPvuROpq" opacity="1" fill="#e01e5a" fill-opacity="1"></use><g><use xlink:href="#b1mPvuROpq" opacity="1" fill-opacity="0" stroke="#000000" stroke-width="1" stroke-opacity="0"></use></g></g><g><use xlink:href="#j17rxZDD4K" opacity="1" fill="#36c5f0" fill-opacity="1"></use><g><use xlink:href="#j17rxZDD4K" opacity="1" fill-opacity="0" stroke="#000000" stroke-width="1" stroke-opacity="0"></use></g></g><g><use xlink:href="#cmC889h1O" opacity="1" fill="#36c5f0" fill-opacity="1"></use><g><use xlink:href="#cmC889h1O" opacity="1" fill-opacity="0" stroke="#000000" stroke-width="1" stroke-opacity="0"></use></g></g><g><use xlink:href="#aaPpznRbc" opacity="1" fill="#2eb67d" fill-opacity="1"></use><g><use xlink:href="#aaPpznRbc" opacity="1" fill-opacity="0" stroke="#000000" stroke-width="1" stroke-opacity="0"></use></g></g><g><use xlink:href="#bKKfrRCH" opacity="1" fill="#2eb67d" fill-opacity="1"></use><g><use xlink:href="#bKKfrRCH" opacity="1" fill-opacity="0" stroke="#000000" stroke-width="1" stroke-opacity="0"></use></g></g><g><use xlink:href="#c9tXvNPANc" opacity="1" fill="#ecb22e" fill-opacity="1"></use><g><use xlink:href="#c9tXvNPANc" opacity="1" fill-opacity="0" stroke="#000000" stroke-width="1" stroke-opacity="0"></use></g></g><g><use xlink:href="#a4baalmexk" opacity="1" fill="#ecb22e" fill-opacity="1"></use><g><use xlink:href="#a4baalmexk" opacity="1" fill-opacity="0" stroke="#000000" stroke-width="1" stroke-opacity="0"></use></g></g></g></g></svg>